# Blender v3.4.1 OBJ File: 'AltarV1.blend'
# www.blender.org
mtllib Altar.mtl
o Cube
v -0.100000 0.300000 -0.100000
v -0.100000 0.000000 -0.100000
v -0.100000 0.300000 0.100000
v -0.100000 0.000000 0.100000
v -0.100000 0.015413 0.100000
v -0.100000 0.015413 -0.100000
v -0.113552 -0.001044 -0.113552
v -0.113552 -0.001044 0.113552
v -0.113552 0.016457 -0.113552
v -0.113552 0.016457 0.113552
v 0.000000 0.300000 0.100000
v -0.100000 0.300000 0.000000
v 0.000000 0.300000 -0.100000
v 0.000000 0.294867 -0.016290
v -0.050000 0.300000 0.100000
v -0.100000 0.300000 -0.050000
v -0.100000 0.300000 0.050000
v -0.050000 0.300000 -0.100000
v 0.000000 0.286542 0.077417
v 0.000000 0.286542 -0.077417
v -0.077417 0.286542 0.000000
v -0.077417 0.286542 -0.077417
v -0.077417 0.286542 0.077417
v 0.000000 0.286542 -0.038708
v -0.038708 0.286542 0.000000
v 0.000000 0.286542 0.038708
v -0.077417 0.286542 -0.038708
v -0.038708 0.286542 -0.077417
v -0.077417 0.286542 0.038708
v -0.038708 0.286542 0.077417
v -0.038708 0.286542 0.038708
v -0.038708 0.286542 -0.038708
v 0.000000 0.286542 -0.019354
v -0.028119 0.286542 0.000000
v 0.000000 0.286542 0.019354
v -0.038708 0.286542 0.019354
v -0.019354 0.286542 0.038708
v -0.038708 0.286542 -0.019354
v -0.019354 0.286542 -0.038708
v -0.028119 0.286542 -0.019354
v -0.028119 0.286542 0.019354
v 0.000000 0.000000 -0.100000
v 0.000000 0.000000 0.100000
v 0.000000 0.015413 -0.100000
v 0.000000 0.015413 0.100000
v 0.000000 -0.001044 -0.113552
v 0.000000 -0.001044 0.113552
v 0.000000 0.016457 -0.113552
v 0.000000 0.016457 0.113552
v 0.000000 0.292464 -0.019354
v -0.028119 0.292464 0.000000
v 0.000000 0.292464 0.019354
v -0.028119 0.292464 -0.019354
v -0.028119 0.292464 0.019354
v -0.025892 0.294867 0.000000
v 0.000000 0.294867 0.016290
v -0.025892 0.294867 -0.016290
v -0.025892 0.294867 0.016290
v -0.028784 0.294091 0.020838
v -0.028784 0.301203 0.020838
v -0.028784 0.301203 0.000000
v -0.028784 0.294091 0.000000
v -0.028784 0.294091 -0.020838
v 0.000000 0.294091 -0.020838
v 0.000000 0.294091 0.020838
v -0.028784 0.301203 -0.020838
v 0.000000 0.301203 -0.020838
v 0.000000 0.301203 0.020838
v 0.100000 0.300000 -0.100000
v 0.100000 0.000000 -0.100000
v 0.100000 0.300000 0.100000
v 0.100000 0.000000 0.100000
v 0.100000 0.015413 0.100000
v 0.100000 0.015413 -0.100000
v 0.113552 -0.001044 -0.113552
v 0.113552 -0.001044 0.113552
v 0.113552 0.016457 -0.113552
v 0.113552 0.016457 0.113552
v 0.100000 0.300000 0.000000
v 0.050000 0.300000 0.100000
v 0.100000 0.300000 -0.050000
v 0.100000 0.300000 0.050000
v 0.050000 0.300000 -0.100000
v 0.077417 0.286542 0.000000
v 0.077417 0.286542 -0.077417
v 0.077417 0.286542 0.077417
v 0.038708 0.286542 0.000000
v 0.077417 0.286542 -0.038708
v 0.038708 0.286542 -0.077417
v 0.077417 0.286542 0.038708
v 0.038708 0.286542 0.077417
v 0.038708 0.286542 0.038708
v 0.038708 0.286542 -0.038708
v 0.028119 0.286542 0.000000
v 0.038708 0.286542 0.019354
v 0.019354 0.286542 0.038708
v 0.038708 0.286542 -0.019354
v 0.019354 0.286542 -0.038708
v 0.028119 0.286542 -0.019354
v 0.028119 0.286542 0.019354
v 0.028119 0.292464 0.000000
v 0.028119 0.292464 -0.019354
v 0.028119 0.292464 0.019354
v 0.025892 0.294867 0.000000
v 0.025892 0.294867 -0.016290
v 0.025892 0.294867 0.016290
v 0.028784 0.294091 0.020838
v 0.028784 0.301203 0.020838
v 0.028784 0.301203 0.000000
v 0.028784 0.294091 0.000000
v 0.028784 0.294091 -0.020838
v 0.028784 0.301203 -0.020838
vt 0.738349 0.786721
vt 0.767414 0.786721
vt 0.767414 0.815785
vt 0.727953 0.814085
vt 0.712936 0.815640
vt 0.712750 0.713300
vt 0.719449 0.713251
vt 0.726147 0.713202
vt 0.732845 0.713153
vt 0.739544 0.713104
vt 0.739729 0.815444
vt 0.690906 0.815679
vt 0.690363 0.702349
vt 0.697780 0.702206
vt 0.705198 0.702062
vt 0.705741 0.815392
vt 0.721517 0.837292
vt 0.706847 0.836372
vt 0.706847 0.836372
vt 0.721517 0.837292
vt 0.743166 0.700452
vt 0.703888 0.700452
vt 0.703888 0.700452
vt 0.743166 0.700452
vt 0.824303 0.837665
vt 0.824208 0.843735
vt 0.794868 0.841894
vt 0.794963 0.835825
vt 0.721612 0.831223
vt 0.706942 0.830303
vt 0.703888 0.779008
vt 0.703888 0.779008
vt 0.824208 0.843735
vt 0.794868 0.841894
vt 0.738349 0.728592
vt 0.767414 0.728592
vt 0.767414 0.757656
vt 0.738349 0.757656
vt 0.738349 0.743124
vt 0.767403 0.534592
vt 0.798653 0.534592
vt 0.798653 0.565842
vt 0.767403 0.565842
vt 0.767403 0.550217
vt 0.709285 0.699527
vt 0.738349 0.699527
vt 0.723817 0.728592
vt 0.709285 0.728592
vt 0.767414 0.699527
vt 0.709285 0.786721
vt 0.723817 0.786721
vt 0.709285 0.815785
vt 0.767403 0.597092
vt 0.798653 0.597092
vt 0.798653 0.628342
vt 0.767403 0.628342
vt 0.738349 0.772189
vt 0.736153 0.597092
vt 0.751778 0.597092
vt 0.736153 0.628342
vt 0.751778 0.581467
vt 0.767403 0.581467
vt 0.751778 0.550217
vt 0.751778 0.565842
vt 0.736153 0.503342
vt 0.767403 0.503342
vt 0.751778 0.534592
vt 0.736153 0.534592
vt 0.798653 0.503342
vt 0.706771 0.700241
vt 0.764186 0.700241
vt 0.764186 0.700241
vt 0.706771 0.700241
vt 0.736153 0.550217
vt 0.736153 0.581467
vt 0.764186 0.815072
vt 0.706771 0.815072
vt 0.706771 0.815072
vt 0.764186 0.815072
vt 0.780198 0.840974
vt 0.780198 0.840974
vt 0.780293 0.834904
vt 0.743166 0.779008
vt 0.743166 0.779008
vt 0.722102 0.807903
vt 0.722210 0.712094
vt 0.728481 0.712123
vt 0.734752 0.712151
vt 0.734643 0.807961
vt 0.764186 0.757656
vt 0.764186 0.757656
vt 0.764186 0.700241
vt 0.764186 0.815072
vt 0.764186 0.757656
vt 0.765625 0.625000
vt 0.765625 0.640625
vt 0.765625 0.640625
vt 0.765625 0.625000
vt 0.564962 0.779950
vt 0.653344 0.779546
vt 0.653546 0.957478
vt 0.609355 0.957680
vt 0.565164 0.957882
vt 0.706771 0.815072
vt 0.706771 0.700241
vt 0.594983 0.862158
vt 0.632192 0.859008
vt 0.631408 0.816484
vt 0.594590 0.813334
vt 0.742178 0.962218
vt 0.809087 0.964358
vt 0.811049 0.854897
vt 0.736684 0.854333
vt 0.810719 0.853973
vt 0.736789 0.856577
vt 0.742140 0.962063
vt 0.808590 0.963494
vt 0.547021 0.962066
vt 0.547021 0.830146
vt 0.557851 0.830146
vt 0.557851 0.962066
vt 0.712752 0.961382
vt 0.928063 0.960594
vt 0.928848 0.856646
vt 0.710790 0.856646
vt 0.629461 0.820960
vt 0.600069 0.824109
vt 0.600069 0.858759
vt 0.629068 0.860334
vt 0.765625 0.609375
vt 0.765625 0.609375
vt 0.738349 0.786721
vt 0.727953 0.814085
vt 0.767414 0.815785
vt 0.767414 0.786721
vt 0.712936 0.815640
vt 0.739729 0.815444
vt 0.739544 0.713104
vt 0.732845 0.713153
vt 0.726147 0.713202
vt 0.719449 0.713251
vt 0.712750 0.713300
vt 0.690906 0.815679
vt 0.697780 0.702206
vt 0.690363 0.702349
vt 0.706847 0.836372
vt 0.706847 0.836372
vt 0.703888 0.700452
vt 0.703888 0.700452
vt 0.824303 0.837665
vt 0.794963 0.835825
vt 0.794868 0.841894
vt 0.824208 0.843735
vt 0.706942 0.830303
vt 0.703888 0.779008
vt 0.703888 0.779008
vt 0.824208 0.843735
vt 0.794868 0.841894
vt 0.738349 0.728592
vt 0.738349 0.743124
vt 0.738349 0.757656
vt 0.767414 0.757656
vt 0.767414 0.728592
vt 0.767403 0.534592
vt 0.767403 0.550217
vt 0.767403 0.565842
vt 0.798653 0.565842
vt 0.798653 0.534592
vt 0.723817 0.728592
vt 0.738349 0.699527
vt 0.767414 0.699527
vt 0.723817 0.786721
vt 0.767403 0.597092
vt 0.767403 0.628342
vt 0.798653 0.628342
vt 0.798653 0.597092
vt 0.738349 0.772189
vt 0.751778 0.597092
vt 0.751778 0.581467
vt 0.767403 0.581467
vt 0.751778 0.550217
vt 0.751778 0.565842
vt 0.751778 0.534592
vt 0.767403 0.503342
vt 0.798653 0.503342
vt 0.764186 0.700241
vt 0.764186 0.700241
vt 0.764186 0.815072
vt 0.764186 0.815072
vt 0.734643 0.807961
vt 0.734752 0.712151
vt 0.728481 0.712123
vt 0.764186 0.700241
vt 0.764186 0.757656
vt 0.764186 0.757656
vt 0.764186 0.815072
vt 0.764186 0.757656
vt 0.765625 0.625000
vt 0.765625 0.625000
vt 0.765625 0.640625
vt 0.765625 0.640625
vt 0.565164 0.957882
vt 0.609355 0.957680
vt 0.653546 0.957478
vt 0.631408 0.816484
vt 0.632192 0.859008
vt 0.742178 0.962218
vt 0.736684 0.854333
vt 0.811049 0.854897
vt 0.809087 0.964358
vt 0.810719 0.853973
vt 0.808590 0.963494
vt 0.742140 0.962063
vt 0.736789 0.856577
vt 0.547021 0.962066
vt 0.557851 0.962066
vt 0.928848 0.856646
vt 0.928063 0.960594
vt 0.629461 0.820960
vt 0.629068 0.860334
vt 0.765625 0.609375
vt 0.765625 0.609375
vn 0.2746 0.9215 -0.2746
vn -1.0000 -0.0000 0.0000
vn 0.0000 0.0000 -1.0000
vn 0.0000 0.9970 -0.0768
vn 0.0000 -0.9970 0.0768
vn 0.0000 0.0000 1.0000
vn 0.0768 -0.9970 0.0000
vn 0.0768 0.9970 0.0000
vn 0.5119 0.8590 0.0000
vn 0.0000 1.0000 0.0000
vn 0.0000 0.8590 0.5119
vn 0.2746 0.9215 0.2746
vn 0.0000 0.8590 -0.5119
vn 0.0000 0.9970 0.0768
vn 0.0000 -0.9970 -0.0768
vn 0.0000 -1.0000 0.0000
vn -0.7336 0.6796 0.0000
vn 0.2593 -0.9658 0.0000
vn 0.0000 0.7869 0.6170
vn 0.0000 0.7869 -0.6170
vn 0.0000 -0.9857 0.1682
vn 0.0000 -0.9857 -0.1682
vn -0.2746 0.9215 -0.2746
vn 1.0000 -0.0000 0.0000
vn -0.0768 -0.9970 0.0000
vn -0.0768 0.9970 0.0000
vn -0.5119 0.8590 0.0000
vn -0.2746 0.9215 0.2746
vn 0.7336 0.6796 0.0000
vn -0.2593 -0.9658 0.0000
g Cube_Cube_Material
usemtl Material
s off
f 23/1/1 17/2/1 3/3/1 15/4/1
f 5/5/2 3/6/2 17/7/2 12/8/2 16/9/2 1/10/2 6/11/2
f 6/12/3 1/13/3 18/14/3 13/15/3 44/16/3
f 45/17/4 5/18/4 10/19/4 49/20/4
f 42/21/5 2/22/5 7/23/5 46/24/5
f 8/25/2 10/26/2 9/27/2 7/28/2
f 47/29/6 49/20/6 10/19/6 8/30/6
f 2/22/7 4/31/7 8/32/7 7/23/7
f 5/33/8 6/34/8 9/27/8 10/26/8
f 22/35/9 16/36/9 12/37/9 21/38/9 27/39/9
f 32/40/10 27/41/10 21/42/10 25/43/10 38/44/10
f 13/45/11 18/46/11 22/35/11 28/47/11 20/48/11
f 18/46/12 1/49/12 16/36/12 22/35/12
f 19/50/13 30/51/13 23/1/13 15/4/13 11/52/13
f 31/53/10 29/54/10 23/55/10 30/56/10
f 21/38/9 12/37/9 17/2/9 23/1/9 29/57/9
f 26/58/10 37/59/10 31/53/10 30/56/10 19/60/10
f 41/61/10 36/62/10 31/53/10 37/59/10
f 25/43/10 21/42/10 29/54/10 31/53/10 36/62/10
f 40/63/10 38/44/10 25/43/10 34/64/10
f 20/65/10 28/66/10 32/40/10 39/67/10 24/68/10
f 28/66/10 22/69/10 27/41/10 32/40/10
f 33/70/3 40/71/3 53/72/3 50/73/3
f 24/68/10 39/67/10 40/63/10 33/74/10
f 39/67/10 32/40/10 38/44/10 40/63/10
f 35/75/10 41/61/10 37/59/10 26/58/10
f 41/76/6 35/77/6 52/78/6 54/79/6
f 34/64/10 25/43/10 36/62/10 41/61/10
f 6/34/14 44/80/14 48/81/14 9/27/14
f 7/28/3 9/27/3 48/81/3 46/82/3
f 4/31/15 43/83/15 47/84/15 8/32/15
f 2/22/16 42/21/16 43/83/16 4/31/16
f 45/85/6 11/86/6 15/87/6 3/88/6 5/89/6
f 53/72/17 51/90/17 55/91/17 57/92/17
f 51/90/17 54/79/17 58/93/17 55/91/17
f 40/71/2 34/94/2 51/90/2 53/72/2
f 34/94/2 41/76/2 54/79/2 51/90/2
f 55/95/18 58/96/18 59/97/18 62/98/18
f 68/99/10 67/100/10 66/101/10 61/102/10 60/103/10
f 54/79/19 52/78/19 56/104/19 58/93/19
f 50/73/20 53/72/20 57/92/20 14/105/20
f 14/106/21 57/107/21 63/108/21 64/109/21
f 63/110/2 62/111/2 61/112/2 66/113/2
f 62/114/2 59/115/2 60/116/2 61/117/2
f 59/118/6 65/119/6 68/120/6 60/121/6
f 64/122/3 63/123/3 66/124/3 67/125/3
f 58/126/22 56/127/22 65/128/22 59/129/22
f 57/130/18 55/95/18 62/98/18 63/131/18
f 86/132/23 80/133/23 71/134/23 82/135/23
f 73/136/24 74/137/24 69/138/24 81/139/24 79/140/24 82/141/24 71/142/24
f 74/143/3 44/16/3 13/15/3 83/144/3 69/145/3
f 45/17/4 49/20/4 78/146/4 73/147/4
f 42/21/5 46/24/5 75/148/5 70/149/5
f 76/150/24 75/151/24 77/152/24 78/153/24
f 47/29/6 76/154/6 78/146/6 49/20/6
f 70/149/25 75/148/25 76/155/25 72/156/25
f 73/157/26 78/153/26 77/152/26 74/158/26
f 85/159/27 88/160/27 84/161/27 79/162/27 81/163/27
f 93/164/10 97/165/10 87/166/10 84/167/10 88/168/10
f 13/45/11 20/48/11 89/169/11 85/159/11 83/170/11
f 83/170/28 85/159/28 81/163/28 69/171/28
f 19/50/13 11/52/13 80/133/13 86/132/13 91/172/13
f 92/173/10 91/174/10 86/175/10 90/176/10
f 84/161/27 90/177/27 86/132/27 82/135/27 79/162/27
f 26/58/10 19/60/10 91/174/10 92/173/10 96/178/10
f 100/179/10 96/178/10 92/173/10 95/180/10
f 87/166/10 95/180/10 92/173/10 90/176/10 84/167/10
f 99/181/10 94/182/10 87/166/10 97/165/10
f 20/65/10 24/68/10 98/183/10 93/164/10 89/184/10
f 89/184/10 93/164/10 88/168/10 85/185/10
f 33/70/3 50/73/3 102/186/3 99/187/3
f 24/68/10 33/74/10 99/181/10 98/183/10
f 98/183/10 99/181/10 97/165/10 93/164/10
f 35/75/10 26/58/10 96/178/10 100/179/10
f 100/188/6 103/189/6 52/78/6 35/77/6
f 94/182/10 100/179/10 95/180/10 87/166/10
f 74/158/14 77/152/14 48/81/14 44/80/14
f 75/151/3 46/82/3 48/81/3 77/152/3
f 72/156/15 76/155/15 47/84/15 43/83/15
f 70/149/16 72/156/16 43/83/16 42/21/16
f 45/85/6 73/190/6 71/191/6 80/192/6 11/86/6
f 102/186/29 105/193/29 104/194/29 101/195/29
f 101/195/29 104/194/29 106/196/29 103/189/29
f 99/187/24 102/186/24 101/195/24 94/197/24
f 94/197/24 101/195/24 103/189/24 100/188/24
f 104/198/30 110/199/30 107/200/30 106/201/30
f 68/99/10 108/202/10 109/203/10 112/204/10 67/100/10
f 103/189/19 106/196/19 56/104/19 52/78/19
f 50/73/20 14/105/20 105/193/20 102/186/20
f 14/106/21 64/109/21 111/205/21 105/206/21
f 111/207/24 112/208/24 109/209/24 110/210/24
f 110/211/24 109/212/24 108/213/24 107/214/24
f 107/215/6 108/216/6 68/120/6 65/119/6
f 64/122/3 67/125/3 112/217/3 111/218/3
f 106/219/22 107/220/22 65/128/22 56/127/22
f 105/221/30 111/222/30 110/199/30 104/198/30
